<?xml version="1.0" encoding="utf-8"?>
<!-- Generator: Adobe Illustrator 20.1.0, SVG Export Plug-In . SVG Version: 6.00 Build 0)  -->
<svg version="1.1" id="Layer_1" xmlns="http://www.w3.org/2000/svg" xmlns:xlink="http://www.w3.org/1999/xlink" x="0px" y="0px"
	 viewBox="0 0 612 612" style="enable-background:new 0 0 612 612;" xml:space="preserve">
<style type="text/css">
	.st0{display:none;}
	.st1{display:inline;fill:#58595B;stroke:#FFFFFF;stroke-width:0.25;stroke-linecap:round;stroke-miterlimit:10;}
	.st2{display:inline;fill:#58595B;}
	.st3{display:inline;fill:#FFFFFF;stroke:#000000;stroke-width:0.25;stroke-miterlimit:10;}
	.st4{display:inline;fill:none;stroke:#000000;stroke-width:0.25;stroke-miterlimit:10;}
	.st5{display:inline;fill:none;stroke:#000000;stroke-width:2;stroke-miterlimit:10;}
	.st6{display:inline;fill:#FFFFFF;}
	.st7{fill:none;stroke:#FFFFFF;stroke-width:0.25;stroke-linecap:round;stroke-miterlimit:10;}
	.st8{fill:#FFFFFF;}
</style>
<g id="BG" class="st0">
	<rect class="st1" width="612" height="612"/>
</g>
<g id="LARGE_GRAY" class="st0">
	<circle class="st2" cx="317.5" cy="306.2" r="182"/>
</g>
<g id="COG" class="st0">
	<path class="st3" d="M338.2,301h-4.5c-0.4-1.2-0.9-2.4-1.5-3.5l3.1-3.1c0.9-0.9,0.9-2.5,0-3.4l-3.8-3.8c-0.9-0.9-2.5-0.9-3.4,0
		l-3.1,3.1c-1.1-0.6-2.3-1.1-3.6-1.5v-4.4c0-1.3-1.1-2.4-2.4-2.4h-5.3c-1.3,0-2.4,1.1-2.4,2.4v4.4c-1.3,0.4-2.5,0.9-3.6,1.5l-3-3
		c-0.9-0.9-2.5-0.9-3.4,0l-3.8,3.8c-0.9,0.9-0.9,2.5,0,3.4l3.1,3.1c-0.6,1.1-1.1,2.4-1.5,3.6h-4.3c-1.3,0-2.4,1.1-2.4,2.4v5.3
		c0,1.3,1.1,2.4,2.4,2.4h4.3c0.4,1.3,0.9,2.5,1.5,3.6l-3,3c-0.9,0.9-0.9,2.5,0,3.4l3.8,3.8c0.9,0.9,2.5,0.9,3.4,0l3.1-3.1
		c1.1,0.6,2.4,1.1,3.6,1.5v4.3c0,1.3,1.1,2.4,2.4,2.4h5.3c1.3,0,2.4-1.1,2.4-2.4v-4.4c1.2-0.4,2.4-0.9,3.6-1.5l3.1,3.1
		c0.9,0.9,2.5,0.9,3.4,0l3.8-3.8c0.9-0.9,0.9-2.5,0-3.4l-3.2-3.2c0.6-1.1,1.1-2.3,1.4-3.6h4.4c1.3,0,2.4-1.1,2.4-2.4v-5.3
		C340.6,302.1,339.6,301,338.2,301z M316.5,314.4c-4.5,0-8.2-3.7-8.2-8.2s3.7-8.2,8.2-8.2s8.2,3.7,8.2,8.2S321,314.4,316.5,314.4z"
		/>
</g>
<g id="LARGE_WHITE" class="st0">
	<line class="st4" x1="317.5" y1="136.2" x2="317.5" y2="476.1"/>
	<line class="st5" x1="317.5" y1="136.2" x2="317.5" y2="476.1"/>
	<line class="st5" x1="232.5" y1="159" x2="402.4" y2="453.3"/>
	<line class="st5" x1="170.3" y1="221.2" x2="464.6" y2="391.1"/>
	<line class="st5" x1="147.5" y1="306.1" x2="487.4" y2="306.1"/>
	<line class="st5" x1="170.3" y1="391.1" x2="464.6" y2="221.2"/>
	<line class="st5" x1="232.5" y1="453.3" x2="402.4" y2="159"/>
	<line class="st4" x1="311.5" y1="136.3" x2="323.4" y2="476"/>
	<line class="st4" x1="305.6" y1="136.6" x2="329.3" y2="475.7"/>
	<line class="st4" x1="299.7" y1="137.1" x2="335.2" y2="475.2"/>
	<line class="st4" x1="293.8" y1="137.9" x2="341.1" y2="474.4"/>
	<line class="st4" x1="288" y1="138.8" x2="347" y2="473.5"/>
	<line class="st4" x1="282.1" y1="139.9" x2="352.8" y2="472.4"/>
	<line class="st4" x1="276.3" y1="141.3" x2="358.6" y2="471"/>
	<line class="st4" x1="270.6" y1="142.8" x2="364.3" y2="469.5"/>
	<line class="st4" x1="264.9" y1="144.5" x2="370" y2="467.8"/>
	<line class="st4" x1="259.3" y1="146.5" x2="375.6" y2="465.8"/>
	<line class="st4" x1="253.8" y1="148.6" x2="381.1" y2="463.7"/>
	<line class="st4" x1="248.3" y1="150.9" x2="386.6" y2="461.4"/>
	<line class="st4" x1="243" y1="153.4" x2="392" y2="458.9"/>
	<line class="st4" x1="237.7" y1="156.1" x2="397.2" y2="456.2"/>
	<line class="st4" x1="232.5" y1="159" x2="402.4" y2="453.3"/>
	<line class="st4" x1="227.4" y1="162" x2="407.5" y2="450.3"/>
	<line class="st4" x1="222.4" y1="165.3" x2="412.5" y2="447"/>
	<line class="st4" x1="217.6" y1="168.7" x2="417.3" y2="443.6"/>
	<line class="st4" x1="212.8" y1="172.2" x2="422.1" y2="440.1"/>
	<line class="st4" x1="208.2" y1="176" x2="426.7" y2="436.3"/>
	<line class="st4" x1="203.8" y1="179.9" x2="431.2" y2="432.4"/>
	<line class="st4" x1="199.4" y1="183.9" x2="435.5" y2="428.4"/>
	<line class="st4" x1="195.2" y1="188.1" x2="439.7" y2="424.2"/>
	<line class="st4" x1="191.2" y1="192.4" x2="443.7" y2="419.9"/>
	<line class="st4" x1="187.3" y1="196.9" x2="447.6" y2="415.4"/>
	<line class="st4" x1="183.6" y1="201.5" x2="451.4" y2="410.8"/>
	<line class="st4" x1="180" y1="206.3" x2="454.9" y2="406"/>
	<line class="st4" x1="176.6" y1="211.1" x2="458.3" y2="401.2"/>
	<line class="st4" x1="173.3" y1="216.1" x2="461.6" y2="396.2"/>
	<line class="st4" x1="170.3" y1="221.2" x2="464.6" y2="391.1"/>
	<line class="st4" x1="167.4" y1="226.4" x2="467.5" y2="385.9"/>
	<line class="st4" x1="164.7" y1="231.7" x2="470.2" y2="380.6"/>
	<line class="st4" x1="162.2" y1="237" x2="472.7" y2="375.3"/>
	<line class="st4" x1="159.9" y1="242.5" x2="475" y2="369.8"/>
	<line class="st4" x1="157.8" y1="248" x2="477.1" y2="364.3"/>
	<line class="st4" x1="155.8" y1="253.6" x2="479.1" y2="358.7"/>
	<line class="st4" x1="154.1" y1="259.3" x2="480.8" y2="353"/>
	<line class="st4" x1="152.6" y1="265" x2="482.3" y2="347.3"/>
	<line class="st4" x1="151.2" y1="270.8" x2="483.7" y2="341.5"/>
	<line class="st4" x1="150.1" y1="276.6" x2="484.8" y2="335.7"/>
	<line class="st4" x1="149.2" y1="282.5" x2="485.7" y2="329.8"/>
	<line class="st4" x1="148.5" y1="288.4" x2="486.5" y2="323.9"/>
	<line class="st4" x1="147.9" y1="294.3" x2="487" y2="318"/>
	<line class="st4" x1="147.6" y1="300.2" x2="487.3" y2="312.1"/>
	<line class="st4" x1="147.5" y1="306.1" x2="487.4" y2="306.1"/>
	<line class="st4" x1="147.6" y1="312.1" x2="487.3" y2="300.2"/>
	<line class="st4" x1="147.9" y1="318" x2="487" y2="294.3"/>
	<line class="st4" x1="148.5" y1="323.9" x2="486.5" y2="288.4"/>
	<line class="st4" x1="149.2" y1="329.8" x2="485.7" y2="282.5"/>
	<line class="st4" x1="150.1" y1="335.7" x2="484.8" y2="276.6"/>
	<line class="st4" x1="151.2" y1="341.5" x2="483.7" y2="270.8"/>
	<line class="st4" x1="152.6" y1="347.3" x2="482.3" y2="265"/>
	<line class="st4" x1="154.1" y1="353" x2="480.8" y2="259.3"/>
	<line class="st4" x1="155.8" y1="358.7" x2="479.1" y2="253.6"/>
	<line class="st4" x1="157.8" y1="364.3" x2="477.1" y2="248"/>
	<line class="st4" x1="159.9" y1="369.8" x2="475" y2="242.5"/>
	<line class="st4" x1="162.2" y1="375.3" x2="472.7" y2="237"/>
	<line class="st4" x1="164.7" y1="380.6" x2="470.2" y2="231.7"/>
	<line class="st4" x1="167.4" y1="385.9" x2="467.5" y2="226.4"/>
	<line class="st4" x1="170.3" y1="391.1" x2="464.6" y2="221.2"/>
	<line class="st4" x1="173.3" y1="396.2" x2="461.6" y2="216.1"/>
	<line class="st4" x1="176.6" y1="401.2" x2="458.3" y2="211.1"/>
	<line class="st4" x1="180" y1="406" x2="454.9" y2="206.3"/>
	<line class="st4" x1="183.6" y1="410.8" x2="451.4" y2="201.5"/>
	<line class="st4" x1="187.3" y1="415.4" x2="447.6" y2="196.9"/>
	<line class="st4" x1="191.2" y1="419.9" x2="443.7" y2="192.4"/>
	<line class="st4" x1="195.2" y1="424.2" x2="439.7" y2="188.1"/>
	<line class="st4" x1="199.4" y1="428.4" x2="435.5" y2="183.9"/>
	<line class="st4" x1="203.8" y1="432.4" x2="431.2" y2="179.9"/>
	<line class="st4" x1="208.2" y1="436.3" x2="426.7" y2="176"/>
	<line class="st4" x1="212.8" y1="440.1" x2="422.1" y2="172.2"/>
	<line class="st4" x1="217.6" y1="443.6" x2="417.3" y2="168.7"/>
	<line class="st4" x1="222.4" y1="447" x2="412.5" y2="165.3"/>
	<line class="st4" x1="227.4" y1="450.3" x2="407.5" y2="162"/>
	<line class="st4" x1="232.5" y1="453.3" x2="402.4" y2="159"/>
	<line class="st4" x1="237.7" y1="456.2" x2="397.2" y2="156.1"/>
	<line class="st4" x1="243" y1="458.9" x2="392" y2="153.4"/>
	<line class="st4" x1="248.3" y1="461.4" x2="386.6" y2="150.9"/>
	<line class="st4" x1="253.8" y1="463.7" x2="381.1" y2="148.6"/>
	<line class="st4" x1="259.3" y1="465.8" x2="375.6" y2="146.5"/>
	<line class="st4" x1="264.9" y1="467.8" x2="370" y2="144.5"/>
	<line class="st4" x1="270.6" y1="469.5" x2="364.3" y2="142.8"/>
	<line class="st4" x1="276.3" y1="471" x2="358.6" y2="141.3"/>
	<line class="st4" x1="282.1" y1="472.4" x2="352.8" y2="139.9"/>
	<line class="st4" x1="288" y1="473.5" x2="347" y2="138.8"/>
	<line class="st4" x1="293.8" y1="474.4" x2="341.1" y2="137.9"/>
	<line class="st4" x1="299.7" y1="475.2" x2="335.2" y2="137.1"/>
	<line class="st4" x1="305.6" y1="475.7" x2="329.3" y2="136.6"/>
	<line class="st4" x1="311.5" y1="476" x2="323.4" y2="136.3"/>
	<circle class="st6" cx="317.5" cy="306.2" r="161.5"/>
</g>
<g>
	<g id="MAIN_SPIRO">
		<g>
			<g>
				<path class="st7" d="M289.6,561c-14.1,0-15.4-117-3.1-257.5s33.8-254.6,47.7-252.1c13.9,2.4,5.3,117-19.2,255.9
					s-55.6,249.5-69.5,247"/>
			</g>
			<g>
				<path class="st7" d="M245.6,554.3c-13.9-2.4,5.2-117.9,41.7-254.1s77.5-244.8,90.7-240c13.3,4.8-15.1,116.2-63.3,248.7
					s-98.1,236-111.3,231.2"/>
			</g>
			<g>
				<path class="st7" d="M203.4,540.1c-13.3-4.8,25.6-115.2,85.2-243s118.8-227.8,131-220.7s-35,111.8-105.6,233.9
					S176.5,525.7,164.3,518.6"/>
			</g>
			<g>
				<path class="st7" d="M164.3,518.7c-12.2-7.1,45.2-109,126.1-224.6S446.9,90.5,457.6,99.6s-53.9,104-144.6,212
					S140.3,499.9,129.5,490.8"/>
			</g>
			<g>
				<path class="st7" d="M129.5,490.8c-10.8-9.1,63.4-99.5,163.1-199.3s189.5-173.3,198.6-162.5s-71.2,93-179.2,183.7
					S109,468,99.9,457.3"/>
			</g>
			<g>
				<path class="st7" d="M100.1,457.4c-9.1-10.8,79.7-87,195.3-167.9s216.7-137.8,223.8-125.6s-86.2,79.3-208.4,149.8
					S84,431.4,76.9,419.3"/>
			</g>
			<g>
				<path class="st7" d="M77,419.3c-7.1-12.2,93.6-71.8,221.5-131.4s237.4-98,242.2-84.8c4.8,13.2-98.7,63.1-231.2,111.3
					S65.6,390.9,60.7,377.8"/>
			</g>
			<g>
				<path class="st7" d="M60.8,377.8c-4.8-13.3,104.7-54.5,240.9-91s250.8-55.3,253.2-41.4c2.4,13.9-108.1,45-247,69.5
					S54.5,348,52,334.1"/>
			</g>
			<g>
				<path class="st7" d="M52,334c-2.4-13.8,112.6-35.4,253.1-47.7s256.6-10.9,256.6,3.2s-114.3,25.5-255.3,25.5S51,303.6,51,289.5"
					/>
			</g>
			<g>
				<path class="st7" d="M51,289.5c0-14.1,117-15.4,257.5-3.1s254.6,33.8,252.1,47.7c-2.4,13.9-117,5.3-255.9-19.2
					s-249.5-55.6-247-69.5"/>
			</g>
			<g>
				<path class="st7" d="M57.7,245.5c2.4-13.9,117.9,5.2,254.1,41.7s244.8,77.5,240,90.7c-4.8,13.3-116.2-15.1-248.7-63.3
					s-236-98.1-231.2-111.3"/>
			</g>
			<g>
				<path class="st7" d="M72,203.3c4.8-13.3,115.2,25.6,243,85.2s227.7,118.8,220.6,131c-7.1,12.2-111.8-35-233.9-105.6
					S86.3,176.3,93.4,164.1"/>
			</g>
			<g>
				<path class="st7" d="M93.3,164.3c7.1-12.2,109,45.2,224.6,126.1s203.6,156.5,194.5,167.3c-9.1,10.8-104-53.9-212-144.6
					S112.1,140.3,121.2,129.3"/>
			</g>
			<g>
				<path class="st7" d="M121.2,129.4c9.1-10.8,99.5,63.4,199.3,163.1S493.8,482.1,483,491.2S390,420,299.3,312
					S143.9,109.1,154.7,100"/>
			</g>
			<g>
				<path class="st7" d="M154.6,100.1c10.8-9.1,87,79.7,167.9,195.3S460.1,512.2,448,519.2c-12.2,7.1-79.3-86.2-149.8-208.4
					S180.5,83.8,192.7,76.8"/>
			</g>
			<g>
				<path class="st7" d="M192.7,76.8c12.2-7.1,71.8,93.6,131.4,221.5s98,237.4,84.8,242.2s-63.1-98.7-111.3-231.2
					S221,65.5,234.2,60.7"/>
			</g>
			<g>
				<path class="st7" d="M234.2,60.7c13.3-4.8,54.5,104.7,91,240.9s55.3,250.8,41.4,253.2c-13.9,2.4-45-108.1-69.5-247
					C272.6,168.9,264,54.3,277.9,51.8"/>
			</g>
			<g>
				<path class="st7" d="M277.9,51.9c13.9-2.4,35.5,112.6,47.8,253.1s10.9,256.6-3.2,256.6s-25.5-114.3-25.5-255.3
					s11.4-255.3,25.5-255.3"/>
			</g>
			<g>
				<path class="st7" d="M322.4,50.8c14.1,0,15.4,117,3.1,257.5S291.7,563,277.8,560.5c-13.9-2.4-5.3-117,19.2-255.9
					c24.5-138.8,55.6-249.4,69.5-246.9"/>
			</g>
			<g>
				<path class="st7" d="M366.5,57.6c13.9,2.4-5.2,117.9-41.7,254.1s-77.5,244.8-90.7,240c-13.3-4.8,15.1-116.2,63.3-248.7
					s98.1-236,111.3-231.2"/>
			</g>
			<g>
				<path class="st7" d="M408.7,71.8c13.3,4.8-25.6,115.2-85.2,243s-118.8,227.7-131,220.6s35-111.8,105.6-233.9
					S435.6,86.3,447.8,93.3"/>
			</g>
			<g>
				<path class="st7" d="M447.6,93.3c12.2,7.1-45.2,109-126.1,224.6S165.1,521.4,154.3,512.4c-10.8-9.1,53.9-104,144.6-212
					s172.9-188.3,183.7-179.2"/>
			</g>
			<g>
				<path class="st7" d="M482.5,121.1c10.8,9.1-63.4,99.5-163.1,199.3S129.8,493.6,120.8,482.9c-9.1-10.8,71.2-93,179.2-183.7
					s202.9-155.4,212-144.6"/>
			</g>
			<g>
				<path class="st7" d="M511.9,154.5c9.1,10.8-79.7,87-195.3,167.9S99.9,460.1,92.9,447.9c-7.1-12.2,86.2-79.3,208.4-149.8
					s226.8-117.7,233.8-105.5"/>
			</g>
			<g>
				<path class="st7" d="M535.1,192.5c7.1,12.2-93.6,71.8-221.5,131.4s-237.4,98-242.2,84.8c-4.8-13.3,98.7-63.1,231.2-111.3
					s243.8-76.6,248.7-63.3"/>
			</g>
			<g>
				<path class="st7" d="M551.3,234c4.8,13.3-104.7,54.5-240.9,91S59.6,380.4,57.2,366.4c-2.4-13.9,108.1-45,247-69.5
					s253.4-33.1,255.9-19.2"/>
			</g>
			<g>
				<path class="st7" d="M560.1,277.8c2.4,13.9-112.6,35.5-253.1,47.8s-256.6,10.9-256.6-3.2s114.3-25.5,255.3-25.5
					s255.3,11.4,255.3,25.5"/>
			</g>
			<g>
				<path class="st7" d="M561.1,322.4c0,14.1-117,15.4-257.5,3.1S49,291.7,51.5,277.8c2.4-13.9,117-5.3,255.9,19.2
					s249.5,55.6,247,69.5"/>
			</g>
			<g>
				<path class="st7" d="M554.3,366.4c-2.4,13.9-117.9-5.2-254.1-41.7s-244.8-77.5-240-90.7c4.8-13.3,116.2,15.1,248.7,63.3
					s236,98.1,231.2,111.3"/>
			</g>
			<g>
				<path class="st7" d="M540.1,408.5c-4.8,13.3-115.2-25.6-243-85.2S69.4,204.6,76.5,192.4c7.1-12.2,111.8,35,233.9,105.6
					s215.3,137.5,208.3,149.7"/>
			</g>
			<g>
				<path class="st7" d="M518.7,447.6c-7.1,12.2-109-45.2-224.6-126.1S90.6,165,99.7,154.3s104,53.9,212,144.6
					s188.2,172.8,179.2,183.6"/>
			</g>
			<g>
				<path class="st7" d="M490.9,482.4c-9.1,10.8-99.5-63.4-199.3-163.1S118.3,129.8,129.1,120.7s93,71.2,183.7,179.2
					s155.4,202.9,144.6,212"/>
			</g>
			<g>
				<path class="st7" d="M457.4,511.9c-10.8,9.1-87-79.7-167.9-195.3S151.8,99.8,164,92.8c12.2-7.1,79.3,86.2,149.8,208.4
					S431.6,528,419.4,535.1"/>
			</g>
			<g>
				<path class="st7" d="M419.4,535.1c-12.2,7.1-71.8-93.6-131.4-221.5S190,76.2,203.1,71.4c13.3-4.8,63.1,98.7,111.3,231.2
					s76.6,243.8,63.3,248.7"/>
			</g>
			<g>
				<path class="st7" d="M377.9,551.3c-13.3,4.8-54.5-104.7-91-240.9S231.6,59.6,245.5,57.1c13.9-2.4,45,108.1,69.5,247
					s33.1,253.4,19.2,255.9"/>
			</g>
			<g>
				<path class="st7" d="M334.2,560c-13.9,2.4-35.5-112.6-47.8-253.1s-10.9-256.5,3.2-256.5s25.5,114.3,25.5,255.3
					S303.7,561,289.6,561"/>
			</g>
		</g>
	</g>
	<g id="SMALL_SPRIO">
		<g>
			<g>
				<path class="st7" d="M302.9,356.8c-2.8,0-3.1-23.4-0.6-51.5s6.8-50.9,9.5-50.4c2.8,0.5,1.1,23.4-3.8,51.2s-11.1,49.9-13.9,49.4"
					/>
			</g>
			<g>
				<path class="st7" d="M294.1,355.4c-2.8-0.5,1-23.6,8.3-50.8s15.5-49,18.1-48c2.7,1-3,23.2-12.7,49.7
					c-9.6,26.5-19.6,47.2-22.3,46.2"/>
			</g>
			<g>
				<path class="st7" d="M285.7,352.5c-2.7-1,5.1-23,17-48.6s23.8-45.5,26.2-44.1c2.4,1.4-7,22.4-21.1,46.8s-27.5,43.1-30,41.7"/>
			</g>
			<g>
				<path class="st7" d="M277.9,348.4c-2.4-1.4,9-21.8,25.2-44.9s31.3-40.7,33.5-38.9c2.2,1.8-10.8,20.8-28.9,42.4
					s-34.6,37.6-36.7,35.8"/>
			</g>
			<g>
				<path class="st7" d="M270.9,342.9c-2.2-1.8,12.7-19.9,32.6-39.9c19.9-19.9,37.9-34.7,39.7-32.5c1.8,2.2-14.2,18.6-35.8,36.7
					s-40.6,31.1-42.4,28.9"/>
			</g>
			<g>
				<path class="st7" d="M265.1,336.1c-1.8-2.2,15.9-17.4,39.1-33.6c23.1-16.2,43.4-27.5,44.8-25.1s-17.2,15.9-41.7,30
					c-24.4,14.1-45.4,23.6-46.8,21.1"/>
			</g>
			<g>
				<path class="st7" d="M260.4,328.5c-1.4-2.4,18.7-14.4,44.3-26.3s47.5-19.6,48.4-17c1,2.7-19.7,12.6-46.2,22.3
					c-26.5,9.6-48.8,15.3-49.7,12.7"/>
			</g>
			<g>
				<path class="st7" d="M257.2,320.4c-1-2.7,20.9-10.9,48.2-18.2s50.2-11.1,50.6-8.3s-21.6,9-49.4,13.9s-50.7,6.6-51.2,3.8"/>
			</g>
			<g>
				<path class="st7" d="M255.5,311.6c-0.5-2.8,22.5-7.1,50.6-9.6s51.3-2.2,51.3,0.6s-22.9,5.1-51.1,5.1s-51.1-2.3-51.1-5.1"/>
			</g>
			<g>
				<path class="st7" d="M255.2,302.8c0-2.8,23.4-3.1,51.5-0.6s50.9,6.8,50.4,9.5s-23.4,1.1-51.2-3.8c-27.8-4.9-49.9-11.1-49.4-13.9
					"/>
			</g>
			<g>
				<path class="st7" d="M256.6,293.9c0.5-2.8,23.6,1,50.8,8.3s49,15.5,48,18.1c-1,2.7-23.2-3-49.7-12.7s-47.2-19.6-46.2-22.3"/>
			</g>
			<g>
				<path class="st7" d="M259.4,285.5c1-2.7,23,5.1,48.6,17s45.5,23.8,44.1,26.2c-1.4,2.4-22.4-7-46.8-21.1s-43.1-27.5-41.7-30"/>
			</g>
			<g>
				<path class="st7" d="M263.6,277.8c1.4-2.4,21.8,9,44.9,25.2s40.7,31.3,38.9,33.5s-20.8-10.8-42.4-28.9s-37.6-34.6-35.8-36.7"/>
			</g>
			<g>
				<path class="st7" d="M269.2,270.9c1.8-2.2,19.9,12.7,39.9,32.6s34.7,37.9,32.5,39.7S323,329,304.9,307.4
					c-18.1-21.6-31.1-40.6-28.9-42.4"/>
			</g>
			<g>
				<path class="st7" d="M275.8,264.9c2.2-1.8,17.4,15.9,33.6,39.1c16.2,23.1,27.5,43.4,25.1,44.8s-15.9-17.2-30-41.7
					c-14.1-24.4-23.6-45.4-21.1-46.8"/>
			</g>
			<g>
				<path class="st7" d="M283.4,260.4c2.4-1.4,14.4,18.7,26.3,44.3c11.9,25.6,19.6,47.5,17,48.4c-2.7,1-12.6-19.7-22.3-46.2
					c-9.6-26.5-15.3-48.8-12.7-49.7"/>
			</g>
			<g>
				<path class="st7" d="M291.6,257.1c2.7-1,10.9,20.9,18.2,48.2c7.3,27.2,11.1,50.2,8.3,50.6c-2.8,0.5-9-21.6-13.9-49.4
					s-6.6-50.7-3.8-51.2"/>
			</g>
			<g>
				<path class="st7" d="M300.3,255.3c2.8-0.5,7.1,22.5,9.6,50.6c2.5,28.1,2.2,51.3-0.6,51.3s-5.1-22.9-5.1-51.1s2.3-51.1,5.1-51.1"
					/>
			</g>
			<g>
				<path class="st7" d="M309.2,255.1c2.8,0,3.1,23.4,0.6,51.5s-6.8,50.9-9.5,50.4c-2.8-0.5-1.1-23.4,3.8-51.2s11.1-49.9,13.9-49.4"
					/>
			</g>
			<g>
				<path class="st7" d="M318,256.4c2.8,0.5-1,23.6-8.3,50.8s-15.5,49-18.1,48c-2.7-1,3-23.2,12.7-49.7
					c9.6-26.5,19.6-47.2,22.3-46.2"/>
			</g>
			<g>
				<path class="st7" d="M326.4,259.3c2.7,1-5.1,23-17,48.6s-23.8,45.5-26.2,44.1s7-22.4,21.1-46.8s27.5-43.1,30-41.7"/>
			</g>
			<g>
				<path class="st7" d="M334.2,263.5c2.4,1.4-9,21.8-25.2,44.9s-31.3,40.7-33.5,38.9c-2.2-1.8,10.8-20.8,28.9-42.4
					s34.6-37.6,36.7-35.8"/>
			</g>
			<g>
				<path class="st7" d="M341.1,269c2.2,1.8-12.7,19.9-32.6,39.9c-19.9,19.9-37.9,34.7-39.7,32.5c-1.8-2.2,14.2-18.6,35.8-36.7
					s40.6-31.1,42.4-28.9"/>
			</g>
			<g>
				<path class="st7" d="M347,275.8c1.8,2.2-15.9,17.4-39.1,33.6c-23.1,16.2-43.4,27.5-44.8,25.1s17.2-15.9,41.7-30
					c24.4-14.1,45.4-23.6,46.8-21.1"/>
			</g>
			<g>
				<path class="st7" d="M351.6,283.3c1.4,2.4-18.7,14.4-44.3,26.3s-47.5,19.6-48.4,17c-1-2.7,19.7-12.6,46.2-22.3
					s48.8-15.3,49.7-12.7"/>
			</g>
			<g>
				<path class="st7" d="M354.9,291.5c1,2.7-20.9,10.9-48.2,18.2s-50.2,11.1-50.6,8.3c-0.5-2.8,21.6-9,49.4-13.9s50.7-6.6,51.2-3.8"
					/>
			</g>
			<g>
				<path class="st7" d="M356.6,300.3c0.5,2.8-22.5,7.1-50.6,9.6s-51.3,2.2-51.3-0.6c0-2.8,22.9-5.1,51.1-5.1s51.1,2.3,51.1,5.1"/>
			</g>
			<g>
				<path class="st7" d="M356.8,309.1c0,2.8-23.4,3.1-51.5,0.6s-50.9-6.8-50.4-9.5c0.5-2.8,23.4-1.1,51.2,3.8s49.9,11.1,49.4,13.9"
					/>
			</g>
			<g>
				<path class="st7" d="M355.5,317.9c-0.5,2.8-23.6-1-50.8-8.3c-27.2-7.3-49-15.5-48-18.1c1-2.7,23.2,3,49.7,12.7
					c26.5,9.6,47.2,19.6,46.2,22.3"/>
			</g>
			<g>
				<path class="st7" d="M352.7,326.3c-1,2.7-23-5.1-48.6-17S258.6,285.5,260,283c1.4-2.4,22.4,7,46.8,21.1s43.1,27.5,41.7,30"/>
			</g>
			<g>
				<path class="st7" d="M348.4,334c-1.4,2.4-21.8-9-44.9-25.2s-40.7-31.3-38.9-33.5c1.8-2.2,20.8,10.8,42.4,28.9
					s37.6,34.6,35.8,36.7"/>
			</g>
			<g>
				<path class="st7" d="M342.9,341c-1.8,2.2-19.9-12.7-39.9-32.6s-34.6-38-32.4-39.8s18.6,14.2,36.7,35.8
					c18.1,21.6,31.1,40.6,28.9,42.4"/>
			</g>
			<g>
				<path class="st7" d="M336.3,346.9c-2.2,1.8-17.4-15.9-33.6-39.1c-16.2-23.1-27.5-43.4-25.1-44.8s15.9,17.2,30,41.7
					c14.1,24.4,23.6,45.4,21.1,46.8"/>
			</g>
			<g>
				<path class="st7" d="M328.7,351.5c-2.4,1.4-14.4-18.7-26.3-44.3c-11.9-25.6-19.6-47.5-17-48.4c2.7-1,12.6,19.7,22.3,46.2
					c9.6,26.5,15.3,48.8,12.7,49.7"/>
			</g>
			<g>
				<path class="st7" d="M320.4,354.8c-2.7,1-10.9-20.9-18.2-48.2s-11.1-50.2-8.3-50.6s9,21.6,13.9,49.4s6.6,50.7,3.8,51.2"/>
			</g>
			<g>
				<path class="st7" d="M311.7,356.5c-2.8,0.5-7.1-22.5-9.6-50.6s-2.2-51.3,0.6-51.3s5.1,22.9,5.1,51.1s-2.3,51.1-5.1,51.1"/>
			</g>
		</g>
	</g>
	<g id="Layer_7">
		<circle class="st8" cx="306.1" cy="305.9" r="2.1"/>
	</g>
</g>
</svg>
